<svg xmlns="http://www.w3.org/2000/svg"><symbol id="chart-1" viewBox="0 0 512 512"><!--! Font Awesome Pro 6.0.0 by @fontawesome - https://fontawesome.com License - https://fontawesome.com/license (Commercial License) Copyright 2022 Fonticons, Inc.--><path d="M16 408c0 30.9 25.07 56 56 56h432c4.4 0 8 3.6 8 8s-3.6 8-8 8H72c-39.76 0-72-32.2-72-72V40a8 8 0 0 1 8-8c4.42 0 8 3.58 8 8v368zm456-280c4.4 0 8 3.6 8 8v120c0 4.4-3.6 8-8 8s-8-3.6-8-8V155.3L293.7 325.7a8.15 8.15 0 0 1-11.4 0L192 235.3l-90.3 90.4c-3.17 3.1-8.23 3.1-11.36 0a8.112 8.112 0 0 1 0-11.4l95.96-96c3.2-3.1 8.2-3.1 11.4 0l90.3 90.4 164.7-165.6H352c-4.4 0-8-2.7-8-8 0-3.5 3.6-8 8-8l120 .9z"/></symbol><symbol id="chart-4" viewBox="0 0 512 512"><!--! Font Awesome Pro 6.0.0 by @fontawesome - https://fontawesome.com License - https://fontawesome.com/license (Commercial License) Copyright 2022 Fonticons, Inc.--><path d="M16 408c0 30.9 25.07 56 56 56h432c4.4 0 8 3.6 8 8s-3.6 8-8 8H72c-39.76 0-72-32.2-72-72V40a8 8 0 0 1 8-8c4.42 0 8 3.58 8 8v368zm216-248c0 22.1-17.9 40-40 40s-40-17.9-40-40 17.9-40 40-40 40 17.9 40 40zm-40 24c13.3 0 24-10.7 24-24s-10.7-24-24-24-24 10.7-24 24 10.7 24 24 24zm56 72c0-22.1 17.9-40 40-40s40 17.9 40 40-17.9 40-40 40-40-17.9-40-40zm40-24c-13.3 0-24 10.7-24 24s10.7 24 24 24 24-10.7 24-24-10.7-24-24-24zm136 88c0 22.1-17.9 40-40 40s-40-17.9-40-40 17.9-40 40-40 40 17.9 40 40zm-40 24c13.3 0 24-10.7 24-24s-10.7-24-24-24-24 10.7-24 24 10.7 24 24 24zm-8-216c0-22.1 17.9-40 40-40s40 17.9 40 40-17.9 40-40 40-40-17.9-40-40zm40-24c-13.3 0-24 10.7-24 24s10.7 24 24 24 24-10.7 24-24-10.7-24-24-24zM200 320c0 22.1-17.9 40-40 40s-40-17.9-40-40 17.9-40 40-40 40 17.9 40 40zm-40 24c13.3 0 24-10.7 24-24s-10.7-24-24-24-24 10.7-24 24 10.7 24 24 24z"/></symbol><symbol id="chart-2" viewBox="0 0 512 512"><!--! Font Awesome Pro 6.0.0 by @fontawesome - https://fontawesome.com License - https://fontawesome.com/license (Commercial License) Copyright 2022 Fonticons, Inc.--><path d="M259 7.64C262.1 3.051 267.1 0 273.1 0 405 0 512 106.1 512 238.9c0 9.7-8.1 17.1-17.7 17.1H272c-8.8 0-16-7.2-16-16V17.68c0-3.7 1.1-7.17 3-10.04zM495.7 239.5c.2-.1.2-.2-.6-.3 0 0 .9-.1.9-.3 0-123.1-99.8-223.8-222.9-223.8-.2 0-.3.95-.3.95-.1.02-.2.08-.3.22-.3.27-.5.75-.5 1.41V239.1h222.3c-.2 0 1.2.7 1.4.4zM224 288h221.3c18.5 0 33.3 15.7 29.5 33.8C451.9 430.5 355.5 512 240 512 107.5 512 0 404.5 0 272 0 156.5 81.53 60.12 190.2 37.18 208.3 33.36 224 48.2 224 66.7V288zM208 66.7c0-10.01-8-15.25-14.5-13.86C92.09 74.25 16 164.3 16 272c0 123.7 100.3 224 224 224 107.7 0 197.8-76.1 219.2-177.5 1.4-7.4-3.9-14.5-13.9-14.5H224c-8.8 0-16-7.2-16-16V66.7z"/></symbol><symbol id="chart-3" viewBox="0 0 576 512"><!--! Font Awesome Pro 6.0.0 by @fontawesome - https://fontawesome.com License - https://fontawesome.com/license (Commercial License) Copyright 2022 Fonticons, Inc.--><path d="M136 32c30.9 0 56 25.07 56 56v32h192V88c0-30.93 25.1-56 56-56h80c30.9 0 56 25.07 56 56v80c0 30.9-25.1 56-56 56h-80c-30.9 0-56-25.1-56-56v-32H192v32c0 13.2-4.5 25.3-12.1 34.8l68 95.3c8.2-6.4 20.2-10.1 32.1-10.1h80c30.9 0 56 25.1 56 56v80c0 30.9-25.1 56-56 56h-80c-30.9 0-56-25.1-56-56v-80c0-13.2 4.5-25.3 12.1-34.8l-68-95.3C159 220.3 147.9 224 136 224H56c-30.93 0-56-25.1-56-56V88c0-30.93 25.07-56 56-56h80zm0 16H56c-22.09 0-40 17.91-40 40v80c0 22.1 17.91 40 40 40h80c22.1 0 40-17.9 40-40V88c0-22.09-17.9-40-40-40zm224 256h-80c-22.1 0-40 17.9-40 40v80c0 22.1 17.9 40 40 40h80c22.1 0 40-17.9 40-40v-80c0-22.1-17.9-40-40-40zm40-216v80c0 22.1 17.9 40 40 40h80c22.1 0 40-17.9 40-40V88c0-22.09-17.9-40-40-40h-80c-22.1 0-40 17.91-40 40z"/></symbol></svg>