<?xml version="1.0" encoding="utf-8"?>
<!-- Generator: Adobe Illustrator 26.0.2, SVG Export Plug-In . SVG Version: 6.00 Build 0)  -->
<svg version="1.1" id="Layer_1" xmlns="http://www.w3.org/2000/svg" xmlns:xlink="http://www.w3.org/1999/xlink" x="0px" y="0px"
	 viewBox="0 0 249.6 106.5" style="enable-background:new 0 0 249.6 106.5;" xml:space="preserve">
<style type="text/css">
	.st0{fill:#F7F7F7;}
	.st1{fill:none;}
	.st2{fill:#9751F4;}
</style>
<g>
	<path class="st0" d="M95.1,45.5h6.5v17.9h3.9V45.5h6.5v-3.3h-17V45.5z M152.3,47.9c-0.4-0.2-0.9-0.4-1.5-0.6
		c-0.6-0.2-1.3-0.3-2.1-0.3c-1.1,0-2.2,0.2-3,0.6c-0.9,0.4-1.6,1-2.2,1.7c-0.6,0.7-1.1,1.6-1.4,2.7c-0.3,1-0.5,2.2-0.5,3.4
		c0,1.3,0.2,2.4,0.6,3.5c0.4,1,0.9,1.9,1.6,2.6c0.7,0.7,1.6,1.3,2.6,1.7c1,0.4,2.1,0.6,3.4,0.6c1.2,0,2.4-0.1,3.5-0.3
		c1.1-0.2,2-0.4,2.8-0.6V39.6l-3.7,0.6V47.9z M152.3,60.3c-0.3,0.1-0.6,0.1-1,0.2c-0.4,0.1-0.9,0.1-1.5,0.1c-1.4,0-2.4-0.5-3.2-1.4
		c-0.8-0.9-1.2-2.2-1.2-3.8c0-1.6,0.3-2.8,0.9-3.7c0.6-0.9,1.6-1.4,3-1.4c0.6,0,1.2,0.1,1.7,0.3c0.5,0.2,1,0.4,1.3,0.6V60.3z
		 M160.7,63.4h3.7v-16h-3.7V63.4z M136.5,48.7c-0.5-0.6-1.2-1-2-1.3c-0.8-0.3-1.9-0.5-3.1-0.5c-1,0-2,0.1-2.9,0.2
		c-0.9,0.2-1.6,0.3-2.1,0.5l0.5,3c0.4-0.2,1-0.3,1.7-0.4c0.7-0.1,1.5-0.2,2.4-0.2c0.6,0,1.2,0.1,1.6,0.2c0.4,0.2,0.8,0.4,1,0.7
		c0.3,0.3,0.4,0.6,0.5,1c0.1,0.4,0.2,0.8,0.2,1.2v0.6c-0.5-0.1-1-0.2-1.4-0.3c-0.4-0.1-0.9-0.1-1.3-0.1c-0.9,0-1.7,0.1-2.5,0.3
		c-0.8,0.2-1.5,0.5-2.1,0.9c-0.6,0.4-1.1,0.9-1.5,1.5c-0.4,0.6-0.5,1.4-0.5,2.3c0,1,0.2,1.8,0.5,2.4c0.3,0.7,0.8,1.2,1.3,1.6
		c0.6,0.4,1.2,0.7,2,0.9c0.8,0.2,1.7,0.3,2.6,0.3c1.5,0,2.8-0.1,3.9-0.3c1.2-0.2,2-0.3,2.6-0.4v-9.7c0-0.9-0.1-1.8-0.3-2.6
		C137.3,49.9,137,49.3,136.5,48.7z M134.3,60.6c-0.6,0.1-1.5,0.2-2.6,0.2c-0.9,0-1.7-0.2-2.2-0.5c-0.6-0.3-0.8-0.9-0.8-1.8
		c0-0.4,0.1-0.8,0.3-1.1c0.2-0.3,0.5-0.5,0.8-0.7c0.3-0.2,0.7-0.3,1.1-0.3c0.4-0.1,0.8-0.1,1.2-0.1c0.5,0,0.9,0,1.3,0.1
		c0.4,0.1,0.7,0.1,0.9,0.2V60.6z M121.8,47.2c-0.3-0.1-0.7-0.1-1-0.1c-0.3,0-0.6,0-0.9,0c-1.3,0-2.5,0.1-3.6,0.4
		c-1.1,0.2-2,0.5-2.7,0.8v15.3h3.7V50.5c0.2-0.1,0.5-0.1,1-0.2c0.5-0.1,0.9-0.1,1.3-0.1c0.7,0,1.3,0.1,1.9,0.2
		c0.5,0.1,1,0.2,1.3,0.3l0.6-3.1c-0.2-0.1-0.4-0.1-0.7-0.2C122.4,47.3,122.1,47.2,121.8,47.2z M233.2,40.4c-0.6,0-1.2,0.2-1.6,0.6
		c-0.4,0.4-0.7,1-0.7,1.7c0,0.7,0.2,1.2,0.7,1.7c0.4,0.4,1,0.6,1.6,0.6c0.6,0,1.1-0.2,1.6-0.6c0.4-0.4,0.7-1,0.7-1.7
		c0-0.7-0.2-1.3-0.7-1.7C234.3,40.6,233.8,40.4,233.2,40.4z M225.5,43.6c-1.6-1.1-4-1.7-7.1-1.7c-0.9,0-1.9,0-3,0.1
		c-1.1,0.1-2.1,0.2-3,0.4v20.9h3.9v-7.5h1.9c1.6,0,2.9-0.1,4.1-0.4c1.2-0.3,2.2-0.7,3.1-1.2c0.8-0.6,1.5-1.3,1.9-2.2
		c0.4-0.9,0.7-2,0.7-3.2C227.9,46.5,227.1,44.7,225.5,43.6z M222.4,51.8c-1,0.5-2.4,0.8-4.3,0.8h-1.9v-7.2c0.6-0.1,1.4-0.1,2.4-0.1
		c0.7,0,1.4,0.1,2.1,0.2c0.6,0.1,1.2,0.3,1.7,0.6c0.5,0.3,0.8,0.6,1.1,1.1c0.3,0.5,0.4,1.1,0.4,1.7
		C223.9,50.3,223.4,51.3,222.4,51.8z M231.3,63.4h3.7v-16h-3.7V63.4z M249,60c-0.3,0.1-0.7,0.3-1.2,0.4c-0.5,0.1-1.1,0.2-1.8,0.2
		c-1,0-1.7-0.3-2.1-0.8c-0.4-0.6-0.6-1.5-0.6-2.8v-6.5h5.7v-3.1h-5.7v-4.8l-3.7,0.6V57c0,1.1,0.1,2,0.3,2.8c0.2,0.8,0.5,1.5,1,2.1
		c0.4,0.6,1.1,1,1.8,1.3c0.8,0.3,1.7,0.5,2.9,0.5c0.9,0,1.8-0.1,2.5-0.3c0.7-0.2,1.3-0.4,1.7-0.6L249,60z M162.6,40.4
		c-0.6,0-1.2,0.2-1.6,0.6c-0.4,0.4-0.7,1-0.7,1.7c0,0.7,0.2,1.2,0.7,1.7c0.4,0.4,1,0.6,1.6,0.6c0.6,0,1.1-0.2,1.6-0.6
		c0.4-0.4,0.7-1,0.7-1.7c0-0.7-0.2-1.3-0.7-1.7C163.7,40.6,163.2,40.4,162.6,40.4z M194.1,47c-1.2,0-2.4,0.2-3.3,0.6
		c-1,0.4-1.8,0.9-2.5,1.6c-0.7,0.7-1.2,1.5-1.6,2.5c-0.4,1-0.5,2.1-0.5,3.2c0,1.2,0.2,2.3,0.5,3.3c0.3,1,0.8,1.7,1.4,2.4
		c0.6,0.6,1.3,1.1,2.2,1.4c0.8,0.3,1.8,0.5,2.8,0.5c0.8,0,1.5-0.1,2.1-0.3c0.6-0.2,1.1-0.4,1.5-0.6v0.6c0,1.2-0.3,2.1-1,2.7
		S194,66,192.5,66c-0.9,0-1.8-0.1-2.6-0.2c-0.8-0.2-1.5-0.4-2.2-0.6l-0.7,3.2c0.8,0.3,1.6,0.5,2.5,0.6c0.9,0.2,1.9,0.2,2.9,0.2
		c2.7,0,4.7-0.6,6-1.8c1.3-1.2,1.9-3.1,1.9-5.6V47.9c-0.8-0.2-1.7-0.4-2.8-0.6C196.5,47.1,195.3,47,194.1,47z M196.6,58.7
		c-0.3,0.2-0.8,0.4-1.3,0.6c-0.5,0.2-1.1,0.2-1.7,0.2c-1.1,0-2-0.4-2.7-1.1c-0.7-0.7-1-1.9-1-3.4c0-1.5,0.4-2.6,1.1-3.5
		c0.7-0.9,1.7-1.3,3.1-1.3c0.6,0,1.1,0,1.5,0.1c0.4,0.1,0.7,0.1,1,0.2V58.7z M181.1,49.1c-0.5-0.6-1.2-1.1-2.1-1.5
		c-0.9-0.4-2-0.5-3.3-0.5c-1.4,0-2.7,0.1-3.8,0.3c-1.1,0.2-2.1,0.4-2.8,0.6v15.5h3.7V50.5c0.2,0,0.6-0.1,1.1-0.2
		c0.5-0.1,1-0.1,1.5-0.1c0.6,0,1.2,0.1,1.6,0.3c0.4,0.2,0.8,0.4,1,0.8c0.3,0.4,0.4,0.9,0.6,1.5c0.1,0.6,0.2,1.3,0.2,2.2v8.4h3.7v-9
		c0-1.1-0.1-2.1-0.3-3C182,50.5,181.6,49.7,181.1,49.1z"/>
	<path class="st1" d="M60.4,56.5c-0.7-2.2-2.1-2.6-4.1-1.4C57.6,56.9,59,57.2,60.4,56.5z"/>
	<path class="st1" d="M57.3,80.3c-3.3,0.9-4.3,6.1-7.8,9.3c-0.8,0.9-1.6,1.6-2.5,2.1c2.1,0.3,4.2,0.5,6.4,0.5c0.2,0,0.5,0,0.7,0
		C53.5,87.1,56.1,82.3,57.3,80.3z"/>
	<path class="st2" d="M47,91.6c0.9-0.5,1.7-1.2,2.5-2.1c3.4-3.2,4.5-8.3,7.8-9.3c-1.2,2-3.8,6.8-3.1,11.9c3.7-0.1,7.3-0.7,10.8-1.7
		l0.6-15.3c-3.1-4.9-15.6-7.3-21.6,3.1l-0.8-0.5c0.8-2.1,4.2-7.4,10.8-8.3c5.8-0.8,12.3,2.3,13.1,5.4c5-0.5,10.6-6.3,8.9-10.4
		c-1.8-0.4-2.4-0.8-2.9-1c-2.3-0.9-5-4.1-8.6-8.7c-1.3-1.6-2.7-3.1-4-4.7c-1.1-1.3-3.9-3.5-3.9-3.5s-0.1-2.9-2.6-3.7
		c3.3-4.8,18.6-12,18.6-17.8c-3.8,6.6-30.6,12.6-30.3,20.6c0,0.5-15-1.4-26.9,9.6c-0.3,0.2-0.6,0.5-0.9,0.7
		C15.8,74,29.4,88.7,47,91.6z M60.4,56.5c-1.5,0.7-2.8,0.4-4.1-1.4C58.4,53.8,59.8,54.2,60.4,56.5z"/>
	<path class="st0" d="M88.3,78.4L85,76.1C80,83,72.9,87.9,65,90.4c-3.5,1.1-7.1,1.7-10.8,1.7c-0.2,0-0.5,0-0.7,0
		c-2.2,0-4.3-0.2-6.4-0.5C29.4,88.7,15.8,74,14.6,55.8c-0.1-0.9-0.1-1.8-0.1-2.6c0-21.5,17.5-39,39-39c12.3,0,23.6,5.6,31.1,15.5
		l3.2-2.4c-3.8-5-8.6-9.1-13.9-12c-6.1-3.3-13.1-5.1-20.3-5.1c-23.7,0-43,19.3-43,43c0,1.7,0.1,3.3,0.3,4.9c0.3,2.4,0.7,4.7,1.4,7
		c5.2,17.9,21.7,31,41.3,31c7,0,13.9-1.8,20-5C79.2,88.2,84.3,83.9,88.3,78.4z"/>
	<g>
		<path class="st2" d="M73.4,91.2c-6.1,3.2-12.9,5-20,5c-19.6,0-36.1-13.1-41.3-31c-0.7-2.3-1.1-4.6-1.4-7c-0.2-1.6-0.3-3.3-0.3-4.9
			c0-23.7,19.3-43,43-43c7.2,0,14.2,1.8,20.3,5.1l4.8-9.1C71,2.1,62.4,0,53.7,0C24.3,0,0.4,23.9,0.4,53.2s23.9,53.2,53.2,53.2
			c8.6,0,17.2-2.1,24.8-6.1l-4.9-9.2C73.5,91.2,73.5,91.2,73.4,91.2z"/>
	</g>
</g>
</svg>
