<?xml version="1.0" encoding="utf-8"?>
<!-- Generator: Adobe Illustrator 26.0.2, SVG Export Plug-In . SVG Version: 6.00 Build 0)  -->
<svg version="1.1" id="Layer_1" xmlns="http://www.w3.org/2000/svg" xmlns:xlink="http://www.w3.org/1999/xlink" x="0px" y="0px"
	 viewBox="0 0 88.3 106.5" style="enable-background:new 0 0 88.3 106.5;" xml:space="preserve">
<style type="text/css">
	.st0{fill:none;}
	.st1{fill:#9751F4;}
	.st2{fill:#F7F7F7;}
</style>
<g>
	<path class="st0" d="M60.4,56.5c-0.7-2.2-2.1-2.6-4.1-1.4C57.6,56.9,59,57.2,60.4,56.5z"/>
	<path class="st0" d="M57.3,80.3c-3.3,0.9-4.3,6.1-7.8,9.3c-0.8,0.9-1.6,1.6-2.5,2.1c2.1,0.3,4.2,0.5,6.4,0.5c0.2,0,0.5,0,0.7,0
		C53.5,87.1,56.1,82.3,57.3,80.3z"/>
	<path class="st1" d="M47,91.6c0.9-0.5,1.7-1.2,2.5-2.1c3.4-3.2,4.5-8.3,7.8-9.3c-1.2,2-3.8,6.8-3.1,11.9c3.7-0.1,7.3-0.7,10.8-1.7
		l0.6-15.3c-3.1-4.9-15.6-7.3-21.6,3.1l-0.8-0.5c0.8-2.1,4.2-7.4,10.8-8.3c5.8-0.8,12.3,2.3,13.1,5.4c5-0.5,10.6-6.3,8.9-10.4
		c-1.8-0.4-2.4-0.8-2.9-1c-2.3-0.9-5-4.1-8.6-8.7c-1.3-1.6-2.7-3.1-4-4.7c-1.1-1.3-3.9-3.5-3.9-3.5s-0.1-2.9-2.6-3.7
		c3.3-4.8,18.6-12,18.6-17.8c-3.8,6.6-30.6,12.6-30.3,20.6c0,0.5-15-1.4-26.9,9.6c-0.3,0.2-0.6,0.5-0.9,0.7
		C15.8,74,29.4,88.7,47,91.6z M60.4,56.5c-1.5,0.7-2.8,0.4-4.1-1.4C58.4,53.8,59.8,54.2,60.4,56.5z"/>
	<path class="st2" d="M88.3,78.4L85,76.1C80,83,72.9,87.9,65,90.4c-3.5,1.1-7.1,1.7-10.8,1.7c-0.2,0-0.5,0-0.7,0
		c-2.2,0-4.3-0.2-6.4-0.5C29.4,88.7,15.8,74,14.6,55.8c-0.1-0.9-0.1-1.8-0.1-2.6c0-21.5,17.5-39,39-39c12.3,0,23.6,5.6,31.1,15.5
		l3.2-2.4c-3.8-5-8.6-9.1-13.9-12c-6.1-3.3-13.1-5.1-20.3-5.1c-23.7,0-43,19.3-43,43c0,1.7,0.1,3.3,0.3,4.9c0.3,2.4,0.7,4.7,1.4,7
		c5.2,17.9,21.7,31,41.3,31c7,0,13.9-1.8,20-5C79.2,88.2,84.3,83.9,88.3,78.4z"/>
	<g>
		<path class="st1" d="M73.4,91.2c-6.1,3.2-12.9,5-20,5c-19.6,0-36.1-13.1-41.3-31c-0.7-2.3-1.1-4.6-1.4-7c-0.2-1.6-0.3-3.3-0.3-4.9
			c0-23.7,19.3-43,43-43c7.2,0,14.2,1.8,20.3,5.1l4.8-9.1C71,2.1,62.4,0,53.7,0C24.3,0,0.4,23.9,0.4,53.2s23.9,53.2,53.2,53.2
			c8.6,0,17.2-2.1,24.8-6.1l-4.9-9.2C73.5,91.2,73.5,91.2,73.4,91.2z"/>
	</g>
</g>
</svg>
