<?xml version="1.0" encoding="utf-8"?>
<!-- Generator: Adobe Illustrator 26.0.2, SVG Export Plug-In . SVG Version: 6.00 Build 0)  -->
<svg version="1.1" id="Layer_1" xmlns="http://www.w3.org/2000/svg" xmlns:xlink="http://www.w3.org/1999/xlink" x="0px" y="0px"
	 viewBox="0 0 250 250" style="enable-background:new 0 0 250 250;" xml:space="preserve">
<style type="text/css">
	.st0{clip-path:url(#SVGID_00000033335249963410462610000010972849002020767889_);fill:#525469;}
</style>
<g>
	<defs>
		<rect id="SVGID_1_" width="250" height="250"/>
	</defs>
	<clipPath id="SVGID_00000067919264592502092640000009182942906678743937_">
		<use xlink:href="#SVGID_1_"  style="overflow:visible;"/>
	</clipPath>
	<path style="clip-path:url(#SVGID_00000067919264592502092640000009182942906678743937_);fill:#525469;" d="M125,150.4
		c33.9,0,61.3-27.5,61.3-61.3S158.9,27.8,125,27.8S63.7,55.2,63.7,89.1S91.1,150.4,125,150.4z M125,35.4c29.6,0,53.7,24.1,53.7,53.7
		s-24.1,53.7-53.7,53.7s-53.7-24.1-53.7-53.7C71.4,59.5,95.4,35.4,125,35.4z M149.3,173.4h-48.6c-45.8,0-83,37.2-83,83
		c0,9.2,7.4,16.6,16.6,16.6h181.4c9.2,0,16.6-7.4,16.6-16.6C232.3,210.6,195.2,173.4,149.3,173.4z M215.7,265.4H34.3
		c-4.9,0-8.9-4-8.9-9c0-41.5,33.8-75.4,75.4-75.4h48.5c41.6,0,75.4,33.8,75.4,75.4C224.7,261.4,220.6,265.4,215.7,265.4z"/>
</g>
</svg>
